{
  "accessors": [
    {
      "bufferView": 2,
      "componentType": 5126,
      "count": 355,
      "max": [
        0.24076199531555176,
        -0.22971099615097046,
        4.456583023071289
      ],
      "min": [
        -0.15269599854946136,
        -0.5047950148582458,
        3.88075590133667
      ],
      "type": "VEC3"
    },
    {
      "bufferView": 2,
      "byteOffset": 4260,
      "componentType": 5126,
      "count": 355,
      "max": [
        0.993708074092865,
        0.9996530413627625,
        0.9998119473457336
      ],
      "min": [
        -0.9697280526161194,
        -0.998530924320221,
        -0.999948263168335
      ],
      "type": "VEC3"
    },
    {
      "bufferView": 1,
      "componentType": 5126,
      "count": 355,
      "max": [
        0.9894409775733948,
        0.9882659912109375
      ],
      "min": [
        0.021270999684929848,
        0.01260400004684925
      ],
      "type": "VEC2"
    },
    {
      "bufferView": 0,
      "componentType": 5125,
      "count": 1878,
      "type": "SCALAR"
    },
    {
      "bufferView": 2,
      "byteOffset": 8520,
      "componentType": 5126,
      "count": 388,
      "max": [
        0.6279720067977905,
        0.33983099460601807,
        0.7357839941978455
      ],
      "min": [
        -0.5784040093421936,
        -0.4439069926738739,
        -0.05306699872016907
      ],
      "type": "VEC3"
    },
    {
      "bufferView": 2,
      "byteOffset": 13176,
      "componentType": 5126,
      "count": 388,
      "max": [
        0.9994522929191589,
        0.996746301651001,
        0.9996408820152283
      ],
      "min": [
        -0.9990833401679993,
        -0.9970280528068542,
        -0.9999939203262329
      ],
      "type": "VEC3"
    },
    {
      "bufferView": 1,
      "byteOffset": 2840,
      "componentType": 5126,
      "count": 388,
      "max": [
        0.9815980195999146,
        0.9903110265731812
      ],
      "min": [
        0.009185999631881714,
        0.0263069998472929
      ],
      "type": "VEC2"
    },
    {
      "bufferView": 0,
      "byteOffset": 7512,
      "componentType": 5125,
      "count": 1734,
      "type": "SCALAR"
    },
    {
      "bufferView": 2,
      "byteOffset": 17832,
      "componentType": 5126,
      "count": 1691,
      "max": [
        1.0882279872894287,
        0.2088720053434372,
        4.5081610679626465
      ],
      "min": [
        -1.1039689779281616,
        -0.3632740080356598,
        2.0935769081115723
      ],
      "type": "VEC3"
    },
    {
      "bufferView": 2,
      "byteOffset": 38124,
      "componentType": 5126,
      "count": 1691,
      "max": [
        0.999311089515686,
        0.9987812638282776,
        0.9978996515274048
      ],
      "min": [
        -0.9999474287033081,
        -0.9998411536216736,
        -0.9985865354537964
      ],
      "type": "VEC3"
    },
    {
      "bufferView": 1,
      "byteOffset": 5944,
      "componentType": 5126,
      "count": 1691,
      "max": [
        0.9975889921188354,
        0.8908519744873047
      ],
      "min": [
        0.005034999921917915,
        0.0036319999489933252
      ],
      "type": "VEC2"
    },
    {
      "bufferView": 0,
      "byteOffset": 14448,
      "componentType": 5125,
      "count": 8130,
      "type": "SCALAR"
    },
    {
      "bufferView": 2,
      "byteOffset": 58416,
      "componentType": 5126,
      "count": 2690,
      "max": [
        1.1341049671173096,
        0.4096490144729614,
        4.594295978546143
      ],
      "min": [
        -1.1554299592971802,
        -0.3598729968070984,
        0.6562240123748779
      ],
      "type": "VEC3"
    },
    {
      "bufferView": 2,
      "byteOffset": 90696,
      "componentType": 5126,
      "count": 2690,
      "max": [
        0.9998624324798584,
        0.9998836517333984,
        0.999684751033783
      ],
      "min": [
        -0.9998965263366699,
        -0.9989503622055054,
        -0.9977667927742004
      ],
      "type": "VEC3"
    },
    {
      "bufferView": 1,
      "byteOffset": 19472,
      "componentType": 5126,
      "count": 2690,
      "max": [
        0.995635986328125,
        0.9994509816169739
      ],
      "min": [
        0.0024870000779628754,
        0.0016169999726116657
      ],
      "type": "VEC2"
    },
    {
      "bufferView": 0,
      "byteOffset": 46968,
      "componentType": 5125,
      "count": 11994,
      "type": "SCALAR"
    }
  ],
  "asset": {
    "extras": {
      "author": "D7NZ (https://sketchfab.com/fiercefoxgaming26)",
      "license": "CC-BY-4.0 (http://creativecommons.org/licenses/by/4.0/)",
      "source": "https://sketchfab.com/3d-models/criminalbundle-free-fire-c1d5e5f34d3f44c2b4bf28ff30c26a30",
      "title": "Criminalbundle free fire"
    },
    "generator": "Sketchfab-11.57.0",
    "version": "2.0"
  },
  "bufferViews": [
    {
      "buffer": 0,
      "byteLength": 94944,
      "name": "floatBufferViews",
      "target": 34963
    },
    {
      "buffer": 0,
      "byteLength": 40992,
      "byteOffset": 94944,
      "byteStride": 8,
      "name": "floatBufferViews",
      "target": 34962
    },
    {
      "buffer": 0,
      "byteLength": 122976,
      "byteOffset": 135936,
      "byteStride": 12,
      "name": "floatBufferViews",
      "target": 34962
    }
  ],
  "buffers": [
    {
      "byteLength": 258912,
      "uri": "scene.bin"
    }
  ],
  "images": [
    {
      "uri": "textures/mat0_baseColor.png"
    },
    {
      "uri": "textures/mat0.003_baseColor.png"
    },
    {
      "uri": "textures/mat0.005_baseColor.png"
    },
    {
      "uri": "textures/mat0.006_baseColor.jpeg"
    }
  ],
  "materials": [
    {
      "doubleSided": true,
      "name": "mat0",
      "pbrMetallicRoughness": {
        "baseColorTexture": {
          "index": 0
        },
        "metallicFactor": 0.0
      }
    },
    {
      "doubleSided": true,
      "name": "mat0.003",
      "pbrMetallicRoughness": {
        "baseColorTexture": {
          "index": 1
        },
        "metallicFactor": 0.0
      }
    },
    {
      "doubleSided": true,
      "name": "mat0.005",
      "pbrMetallicRoughness": {
        "baseColorTexture": {
          "index": 2
        },
        "metallicFactor": 0.0
      }
    },
    {
      "doubleSided": true,
      "name": "mat0.006",
      "pbrMetallicRoughness": {
        "baseColorTexture": {
          "index": 3
        },
        "metallicFactor": 0.0
      }
    }
  ],
  "meshes": [
    {
      "name": "Object_0",
      "primitives": [
        {
          "attributes": {
            "NORMAL": 1,
            "POSITION": 0,
            "TEXCOORD_0": 2
          },
          "indices": 3,
          "material": 0,
          "mode": 4
        }
      ]
    },
    {
      "name": "Object_1",
      "primitives": [
        {
          "attributes": {
            "NORMAL": 5,
            "POSITION": 4,
            "TEXCOORD_0": 6
          },
          "indices": 7,
          "material": 1,
          "mode": 4
        }
      ]
    },
    {
      "name": "Object_2",
      "primitives": [
        {
          "attributes": {
            "NORMAL": 9,
            "POSITION": 8,
            "TEXCOORD_0": 10
          },
          "indices": 11,
          "material": 2,
          "mode": 4
        }
      ]
    },
    {
      "name": "Object_3",
      "primitives": [
        {
          "attributes": {
            "NORMAL": 13,
            "POSITION": 12,
            "TEXCOORD_0": 14
          },
          "indices": 15,
          "material": 3,
          "mode": 4
        }
      ]
    }
  ],
  "nodes": [
    {
      "children": [
        1
      ],
      "matrix": [
        1.0,
        0.0,
        0.0,
        0.0,
        0.0,
        2.220446049250313e-16,
        -1.0,
        0.0,
        0.0,
        1.0,
        2.220446049250313e-16,
        0.0,
        0.0,
        0.0,
        0.0,
        1.0
      ],
      "name": "Sketchfab_model"
    },
    {
      "children": [
        2,
        3,
        4,
        5
      ],
      "name": "criminalbundle.obj.cleaner.materialmerger.gles"
    },
    {
      "mesh": 0,
      "name": "Object_2"
    },
    {
      "mesh": 1,
      "name": "Object_3"
    },
    {
      "mesh": 2,
      "name": "Object_4"
    },
    {
      "mesh": 3,
      "name": "Object_5"
    }
  ],
  "samplers": [
    {
      "magFilter": 9729,
      "minFilter": 9987,
      "wrapS": 10497,
      "wrapT": 10497
    }
  ],
  "scene": 0,
  "scenes": [
    {
      "name": "Sketchfab_Scene",
      "nodes": [
        0
      ]
    }
  ],
  "textures": [
    {
      "sampler": 0,
      "source": 0
    },
    {
      "sampler": 0,
      "source": 1
    },
    {
      "sampler": 0,
      "source": 2
    },
    {
      "sampler": 0,
      "source": 3
    }
  ]
}
